<svg version="1.1" xmlns="http://www.w3.org/2000/svg" xmlns:xlink="http://www.w3.org/1999/xlink" width="28.0685" height="28.0685" viewBox="0,0,28.0685,28.0685"><g transform="translate(-225.96575,-165.96575)"><g data-paper-data="{&quot;isPaintingLayer&quot;:true}" fill-rule="nonzero" stroke="none" stroke-linecap="butt" stroke-linejoin="miter" stroke-miterlimit="10" stroke-dasharray="" stroke-dashoffset="0" style="mix-blend-mode: normal"><path d="M227.19562,180c0,-7.07167 5.73272,-12.80438 12.80438,-12.80438c7.07167,0 12.80438,5.73272 12.80438,12.80438c0,7.07167 -5.73272,12.80438 -12.80438,12.80438c-7.07167,0 -12.80438,-5.73272 -12.80438,-12.80438z" fill="#ff0000" stroke-width="0"/><path d="M254.03425,180c0,7.7509 -6.28335,14.03425 -14.03425,14.03425c-7.7509,0 -14.03425,-6.28335 -14.03425,-14.03425c0,-7.7509 6.28335,-14.03425 14.03425,-14.03425c7.7509,0 14.03425,6.28335 14.03425,14.03425M252.27997,180c0,-6.78204 -5.49793,-12.27997 -12.27997,-12.27997c-6.78204,0 -12.27997,5.49793 -12.27997,12.27997c0,6.78204 5.49793,12.27997 12.27997,12.27997c6.78204,0 12.27997,-5.49793 12.27997,-12.27997" fill="#000000" stroke-width="1"/><path d="M252.32997,180c0,6.78204 -5.54793,12.32997 -12.32997,12.32997c-6.78204,0 -12.32997,-5.54793 -12.32997,-12.32997c0,-6.78204 5.54793,-12.32997 12.32997,-12.32997c6.78204,0 12.32997,5.54793 12.32997,12.32997" data-paper-data="{&quot;noHover&quot;:false,&quot;origItem&quot;:[&quot;Path&quot;,{&quot;applyMatrix&quot;:true,&quot;segments&quot;:[[[252.27997,180],[0,0],[0,-6.78204]],[[240,167.72003],[6.78204,0],[-6.78204,0]],[[227.72003,180],[0,-6.78204],[0,6.78204]],[[240,192.27997],[-6.78204,0],[6.78204,0]],[[252.27997,180],[0,6.78204],[0,0]]],&quot;fillColor&quot;:[0,0,0,1]}]}" fill="#f5b700" stroke-width="0.5"/><text transform="translate(234.2524,187.17993) scale(0.91545,0.91545)" font-size="24" xml:space="preserve" fill="#ffffff" fill-rule="nonzero" stroke="none" stroke-width="1" stroke-linecap="butt" stroke-linejoin="miter" stroke-miterlimit="10" stroke-dasharray="" stroke-dashoffset="0" font-family="Consolas" font-weight="400" text-anchor="start" style="mix-blend-mode: normal"><tspan x="0" dy="0">h</tspan></text></g></g></svg>