<svg version="1.1" xmlns="http://www.w3.org/2000/svg" xmlns:xlink="http://www.w3.org/1999/xlink" width="150.86528" height="29" viewBox="0,0,150.86528,29"><g transform="translate(-166.9,-164.7)"><g data-paper-data="{&quot;isPaintingLayer&quot;:true}" fill="#000000" fill-rule="nonzero" stroke="none" stroke-width="1" stroke-linecap="butt" stroke-linejoin="miter" stroke-miterlimit="10" stroke-dasharray="" stroke-dashoffset="0" style="mix-blend-mode: normal"><text transform="translate(167.4,187.2)" font-size="24" xml:space="preserve" fill="#000000" fill-rule="nonzero" stroke="none" stroke-width="1" stroke-linecap="butt" stroke-linejoin="miter" stroke-miterlimit="10" stroke-dasharray="" stroke-dashoffset="0" font-family="Consolas" font-weight="400" text-anchor="start" style="mix-blend-mode: normal"><tspan x="0" dy="0">havenisc</tspan></text><text transform="translate(303.06528,187.2)" font-size="24" xml:space="preserve" fill="#000000" fill-rule="nonzero" stroke="none" stroke-width="1" stroke-linecap="butt" stroke-linejoin="miter" stroke-miterlimit="10" stroke-dasharray="" stroke-dashoffset="0" font-family="Consolas" font-weight="400" text-anchor="start" style="mix-blend-mode: normal"><tspan x="0" dy="0">l</tspan></text><path d="M286.38155,178.25109c0.82742,-0.20285 1.73491,-0.30961 2.66909,-0.30961c0.89887,-0.00367 1.79494,0.10028 2.66909,0.30961v-0.30961c0,-1.4741 1.195,-2.66909 2.66909,-2.66909h7.25994c0.82164,0.00084 1.59712,0.38007 2.10229,1.02808c0.50517,0.64801 0.68372,1.49258 0.48406,2.2896l-0.83008,3.31502c-0.59396,2.37618 -2.72875,4.04331 -5.17804,4.04368h-1.16906c-2.78207,0.00069 -5.09822,-2.13542 -5.32218,-4.90847c-0.70998,-0.2589 -1.63616,-0.42972 -2.68511,-0.42972c-0.91303,-0.01142 -1.82125,0.13393 -2.68511,0.42972c-0.22396,2.77304 -2.5401,4.90914 -5.32218,4.90847h-1.17173c-2.44929,-0.00037 -4.58408,-1.6675 -5.17804,-4.04368l-0.83008,-3.31502c-0.19978,-0.79748 -0.0209,-1.64253 0.48487,-2.29065c0.50578,-0.64813 1.28202,-1.02701 2.10414,-1.02703h7.25994c1.4741,0 2.66909,1.195 2.66909,2.66909v0.30961"/></g></g></svg>